<svg width="584" height="634" viewBox="0 0 584 634" fill="none" xmlns="http://www.w3.org/2000/svg">
<g clip-path="url(#clip0_4_16)">
<path d="M109.672 226.197C109.672 114.908 199.89 24.6899 311.179 24.6899V24.6899C422.468 24.6899 512.686 114.908 512.686 226.197V556.099C512.686 567.145 503.732 576.099 492.686 576.099H129.672C118.626 576.099 109.672 567.145 109.672 556.099V226.197Z" fill="#C3FEEA" fill-opacity="0.5"/>
<g opacity="0.4" clip-path="url(#clip1_4_16)">
<path d="M280.535 -262.534C279.807 -198.548 274.919 -136.669 269.671 -77.3101C264.423 -17.9517 259.527 42.6211 259.671 106.69C259.815 170.786 264.353 231.442 269.671 290.69C274.989 349.938 279.527 410.593 279.671 474.69C279.815 538.759 274.919 599.331 269.671 658.69C264.423 718.048 259.535 779.928 258.807 843.914" stroke="#121212" stroke-opacity="0.8" stroke-width="2"/>
<path d="M240.535 -262.534C239.807 -198.548 234.919 -136.669 229.671 -77.3101C224.423 -17.9517 219.527 42.6211 219.671 106.69C219.815 170.786 224.353 231.442 229.671 290.69C234.989 349.938 239.527 410.593 239.671 474.69C239.815 538.759 234.919 599.331 229.671 658.69C224.423 718.048 219.535 779.928 218.807 843.914" stroke="#FEB91E" stroke-width="2"/>
<path d="M200.535 -262.534C199.807 -198.548 194.919 -136.669 189.671 -77.3101C184.423 -17.9517 179.527 42.6211 179.671 106.69C179.815 170.786 184.353 231.442 189.671 290.69C194.989 349.938 199.527 410.593 199.671 474.69C199.815 538.759 194.919 599.331 189.671 658.69C184.423 718.048 179.535 779.928 178.807 843.914" stroke="#121212" stroke-opacity="0.6" stroke-width="2"/>
<path d="M160.535 -262.534C159.807 -198.548 154.919 -136.669 149.671 -77.3101C144.423 -17.9517 139.527 42.6211 139.671 106.69C139.815 170.786 144.353 231.442 149.671 290.69C154.989 349.938 159.527 410.593 159.671 474.69C159.815 538.759 154.919 599.331 149.671 658.69C144.423 718.048 139.535 779.928 138.807 843.914" stroke="#ECC94B" stroke-width="2"/>
</g>
<g opacity="0.4" clip-path="url(#clip2_4_16)">
<path d="M467.535 -262.534C466.807 -198.548 461.919 -136.669 456.671 -77.3101C451.423 -17.9517 446.527 42.6211 446.671 106.69C446.815 170.786 451.353 231.442 456.671 290.69C461.989 349.938 466.527 410.593 466.671 474.69C466.815 538.759 461.919 599.331 456.671 658.69C451.423 718.048 446.535 779.928 445.807 843.914" stroke="#121212" stroke-opacity="0.8" stroke-width="2"/>
<path d="M427.535 -262.534C426.807 -198.548 421.919 -136.669 416.671 -77.3101C411.423 -17.9517 406.527 42.6211 406.671 106.69C406.815 170.786 411.353 231.442 416.671 290.69C421.989 349.938 426.527 410.593 426.671 474.69C426.815 538.759 421.919 599.331 416.671 658.69C411.423 718.048 406.535 779.928 405.807 843.914" stroke="#FEB91E" stroke-width="2"/>
<path d="M387.535 -262.534C386.807 -198.548 381.919 -136.669 376.671 -77.3101C371.423 -17.9517 366.527 42.6211 366.671 106.69C366.815 170.786 371.353 231.442 376.671 290.69C381.989 349.938 386.527 410.593 386.671 474.69C386.815 538.759 381.919 599.331 376.671 658.69C371.423 718.048 366.535 779.928 365.807 843.914" stroke="#121212" stroke-opacity="0.6" stroke-width="2"/>
<path d="M347.535 -262.534C346.807 -198.548 341.919 -136.669 336.671 -77.3101C331.423 -17.9517 326.527 42.6211 326.671 106.69C326.815 170.786 331.353 231.442 336.671 290.69C341.989 349.938 346.527 410.593 346.671 474.69C346.815 538.759 341.919 599.331 336.671 658.69C331.423 718.048 326.535 779.928 325.807 843.914" stroke="#ECC94B" stroke-width="2"/>
</g>
</g>
<g clip-path="url(#clip3_4_16)">
<rect width="189.029" height="116.775" rx="10" transform="matrix(0.97447 0.224516 -0.224218 0.974539 399.113 270.069)" fill="#E8D3FF"/>
<path d="M409.251 350.464C409.089 349.885 408.793 349.404 408.364 349.022C407.935 348.64 407.393 348.374 406.738 348.223C406.013 348.056 405.332 348.071 404.696 348.269C404.059 348.468 403.513 348.834 403.057 349.37C402.601 349.905 402.282 350.57 402.099 351.366C401.911 352.184 401.905 352.934 402.08 353.615C402.268 354.298 402.611 354.87 403.108 355.329C403.606 355.789 404.235 356.106 404.995 356.281C405.93 356.497 406.753 356.428 407.462 356.074C408.174 355.708 408.726 355.103 409.118 354.257L404.908 353.287L405.34 351.41L411.97 352.938L411.478 355.078C411.117 355.894 410.585 356.602 409.88 357.204C409.176 357.805 408.345 358.229 407.389 358.477C406.448 358.716 405.451 358.714 404.399 358.471C403.217 358.199 402.208 357.689 401.37 356.942C400.547 356.186 399.969 355.271 399.638 354.197C399.318 353.126 399.296 351.988 399.573 350.784C399.851 349.579 400.367 348.565 401.123 347.742C401.893 346.91 402.812 346.339 403.881 346.031C404.963 345.714 406.089 345.691 407.259 345.96C408.638 346.278 409.759 346.893 410.62 347.806C411.484 348.707 411.969 349.81 412.075 351.115L409.251 350.464ZM416.565 352.519C416.999 352.077 417.502 351.768 418.072 351.591C418.653 351.418 419.272 351.406 419.927 351.557L419.333 354.136L418.684 353.986C417.913 353.808 417.286 353.855 416.805 354.126C416.336 354.399 415.998 354.986 415.79 355.887L414.677 360.728L412.221 360.163L414.457 350.445L416.912 351.01L416.565 352.519ZM429.512 358.808C429.431 359.159 429.335 359.469 429.224 359.739L422.12 358.103C422.017 358.818 422.136 359.424 422.477 359.921C422.819 360.419 423.305 360.74 423.936 360.885C424.849 361.096 425.588 360.853 426.154 360.159L428.802 360.769C428.307 361.64 427.591 362.288 426.656 362.713C425.724 363.126 424.679 363.199 423.521 362.932C422.585 362.717 421.791 362.318 421.136 361.736C420.496 361.146 420.054 360.422 419.807 359.565C419.573 358.71 419.57 357.786 419.799 356.792C420.03 355.786 420.438 354.95 421.022 354.285C421.606 353.619 422.314 353.166 423.145 352.927C423.976 352.687 424.871 352.678 425.829 352.899C426.753 353.111 427.532 353.5 428.165 354.065C428.811 354.632 429.247 355.33 429.475 356.158C429.718 356.978 429.73 357.861 429.512 358.808ZM427.13 357.521C427.264 356.886 427.151 356.331 426.793 355.854C426.438 355.366 425.938 355.048 425.295 354.9C424.687 354.76 424.13 354.828 423.622 355.105C423.13 355.374 422.761 355.824 422.517 356.458L427.13 357.521ZM430.633 359.251C430.859 358.269 431.252 357.442 431.813 356.771C432.385 356.102 433.052 355.64 433.813 355.384C434.585 355.131 435.386 355.1 436.217 355.292C436.942 355.459 437.54 355.75 438.01 356.167C438.492 356.586 438.846 357.055 439.071 357.575L439.39 356.189L441.863 356.759L439.628 366.477L437.154 365.907L437.481 364.486C437.061 364.87 436.535 365.149 435.903 365.323C435.287 365.489 434.616 365.489 433.891 365.322C433.072 365.133 432.372 364.75 431.791 364.173C431.221 363.598 430.825 362.885 430.602 362.033C430.394 361.173 430.404 360.245 430.633 359.251ZM438.272 361.048C438.41 360.452 438.41 359.916 438.273 359.441C438.138 358.955 437.898 358.554 437.551 358.241C437.208 357.915 436.808 357.7 436.352 357.595C435.896 357.49 435.449 357.504 435.012 357.637C434.575 357.77 434.184 358.025 433.839 358.401C433.508 358.768 433.276 359.244 433.141 359.829C433.006 360.414 433.005 360.955 433.137 361.454C433.283 361.943 433.522 362.349 433.854 362.672C434.198 362.997 434.592 363.211 435.036 363.313C435.492 363.419 435.944 363.406 436.393 363.275C436.845 363.133 437.236 362.878 437.566 362.511C437.9 362.132 438.135 361.645 438.272 361.048ZM446.657 359.988L445.575 364.689C445.5 365.016 445.521 365.273 445.638 365.461C445.769 365.639 446.022 365.771 446.396 365.857L447.536 366.12L447.06 368.19L445.517 367.834C443.447 367.357 442.643 366.113 443.106 364.101L444.184 359.418L443.026 359.151L443.49 357.134L444.648 357.4L445.201 354.997L447.674 355.567L447.121 357.97L449.296 358.471L448.832 360.489L446.657 359.988ZM457.205 370.656C456.351 370.459 455.613 370.135 454.99 369.684C454.379 369.236 453.938 368.691 453.667 368.049C453.396 367.408 453.341 366.712 453.501 365.961L456.132 366.567C456.052 367.078 456.136 367.516 456.384 367.881C456.644 368.249 457.055 368.497 457.616 368.627C458.189 368.759 458.671 368.728 459.06 368.534C459.452 368.329 459.699 368.004 459.801 367.56C459.885 367.197 459.842 366.874 459.674 366.589C459.505 366.304 459.266 366.058 458.957 365.851C458.662 365.635 458.241 365.378 457.694 365.08C456.952 364.662 456.356 364.285 455.904 363.947C455.467 363.6 455.119 363.156 454.862 362.617C454.619 362.068 454.586 361.408 454.763 360.636C454.93 359.911 455.257 359.321 455.743 358.867C456.229 358.413 456.832 358.12 457.552 357.991C458.274 357.849 459.056 357.875 459.898 358.069C461.161 358.36 462.112 358.906 462.753 359.706C463.409 360.498 463.651 361.452 463.48 362.57L460.778 361.948C460.852 361.522 460.75 361.135 460.473 360.788C460.21 360.432 459.804 360.19 459.254 360.064C458.775 359.953 458.36 359.987 458.012 360.165C457.674 360.346 457.452 360.671 457.344 361.139C457.269 361.466 457.311 361.765 457.47 362.036C457.644 362.297 457.873 362.535 458.156 362.748C458.454 362.952 458.875 363.209 459.42 363.519C460.161 363.936 460.756 364.32 461.205 364.669C461.654 365.019 462.006 365.47 462.261 366.021C462.516 366.572 462.556 367.228 462.381 367.988C462.23 368.643 461.921 369.212 461.452 369.695C460.984 370.178 460.384 370.514 459.651 370.702C458.921 370.879 458.105 370.864 457.205 370.656ZM468.325 364.98L467.244 369.681C467.169 370.009 467.189 370.266 467.306 370.453C467.438 370.631 467.691 370.763 468.065 370.849L469.205 371.112L468.729 373.182L467.185 372.826C465.115 372.349 464.312 371.105 464.775 369.094L465.852 364.41L464.695 364.143L465.159 362.126L466.316 362.393L466.869 359.99L469.343 360.559L468.79 362.963L470.965 363.464L470.5 365.481L468.325 364.98ZM481.905 365.984L479.669 375.702L477.195 375.133L477.478 373.905C477.065 374.253 476.574 374.491 476.003 374.618C475.446 374.736 474.869 374.726 474.273 374.589C473.513 374.413 472.877 374.101 472.365 373.65C471.855 373.188 471.503 372.608 471.306 371.91C471.124 371.203 471.132 370.417 471.331 369.552L472.643 363.851L475.099 364.416L473.868 369.767C473.69 370.538 473.746 371.179 474.035 371.689C474.327 372.187 474.806 372.513 475.472 372.667C476.151 372.823 476.73 372.741 477.21 372.421C477.693 372.089 478.023 371.537 478.2 370.765L479.431 365.415L481.905 365.984ZM482.586 371.221C482.812 370.239 483.206 369.412 483.766 368.741C484.339 368.072 485.011 367.611 485.784 367.358C486.556 367.105 487.357 367.074 488.188 367.266C488.819 367.411 489.389 367.69 489.897 368.103C490.408 368.504 490.781 368.972 491.015 369.506L492.077 364.892L494.568 365.466L491.581 378.447L489.09 377.873L489.421 376.435C489.007 376.844 488.491 377.132 487.874 377.297C487.257 377.463 486.587 377.463 485.861 377.296C485.043 377.107 484.343 376.724 483.762 376.147C483.18 375.569 482.778 374.855 482.556 374.003C482.347 373.142 482.357 372.215 482.586 371.221ZM490.226 373.018C490.363 372.422 490.363 371.886 490.226 371.411C490.092 370.925 489.851 370.524 489.505 370.211C489.161 369.885 488.761 369.67 488.305 369.565C487.849 369.46 487.402 369.474 486.965 369.607C486.528 369.74 486.137 369.995 485.792 370.371C485.462 370.738 485.229 371.214 485.094 371.799C484.96 372.384 484.958 372.925 485.09 373.423C485.236 373.913 485.475 374.319 485.807 374.642C486.151 374.967 486.545 375.181 486.989 375.283C487.445 375.388 487.898 375.376 488.347 375.245C488.798 375.103 489.189 374.848 489.52 374.481C489.853 374.102 490.088 373.615 490.226 373.018ZM504.179 376.011C504.098 376.362 504.002 376.672 503.891 376.942L496.787 375.306C496.684 376.021 496.803 376.627 497.144 377.124C497.486 377.622 497.972 377.943 498.603 378.088C499.515 378.299 500.255 378.056 500.821 377.362L503.469 377.972C502.973 378.843 502.258 379.491 501.323 379.916C500.39 380.329 499.345 380.402 498.188 380.135C497.252 379.92 496.457 379.521 495.803 378.94C495.163 378.349 494.72 377.625 494.474 376.768C494.24 375.913 494.237 374.989 494.466 373.995C494.697 372.989 495.105 372.154 495.689 371.488C496.273 370.822 496.981 370.369 497.812 370.13C498.643 369.89 499.537 369.881 500.496 370.102C501.42 370.314 502.199 370.703 502.832 371.268C503.478 371.835 503.914 372.533 504.142 373.361C504.385 374.181 504.397 375.064 504.179 376.011ZM501.797 374.724C501.931 374.089 501.818 373.534 501.46 373.057C501.105 372.569 500.605 372.251 499.962 372.103C499.354 371.963 498.796 372.031 498.289 372.308C497.797 372.577 497.428 373.027 497.184 373.661L501.797 374.724ZM512.458 372.876C513.616 373.143 514.467 373.727 515.01 374.628C515.557 375.517 515.679 376.617 515.378 377.927L514.066 383.628L511.611 383.062L512.846 377.694C513.023 376.922 512.966 376.287 512.675 375.789C512.386 375.279 511.908 374.947 511.241 374.794C510.563 374.638 509.977 374.724 509.482 375.053C509.002 375.374 508.673 375.92 508.496 376.692L507.261 382.06L504.805 381.494L507.041 371.776L509.497 372.341L509.218 373.552C509.642 373.206 510.133 372.974 510.69 372.856C511.261 372.729 511.85 372.736 512.458 372.876ZM521.033 377.124L519.951 381.825C519.876 382.152 519.896 382.409 520.013 382.596C520.145 382.775 520.398 382.907 520.772 382.993L521.912 383.256L521.436 385.325L519.892 384.97C517.822 384.493 517.019 383.249 517.482 381.237L518.559 376.554L517.402 376.287L517.866 374.27L519.023 374.536L519.576 372.133L522.05 372.703L521.497 375.106L523.672 375.607L523.208 377.625L521.033 377.124Z" fill="#0D1111"/>
<path d="M413.566 293.893C414.186 291.202 416.869 289.523 419.56 290.143L453.666 298.001C456.357 298.621 458.037 301.305 457.418 303.996L449.57 338.105C448.951 340.796 446.267 342.475 443.577 341.855L409.47 333.997C406.779 333.377 405.1 330.693 405.719 328.002L413.566 293.893Z" fill="#BF83FF"/>
<path d="M436.27 306.627L430.126 305.212C427.435 304.592 424.752 306.271 424.133 308.962L421.806 319.075C421.187 321.766 422.866 324.45 425.557 325.07L433.009 326.787C435.7 327.407 438.383 325.728 439.002 323.037L441.137 313.76M436.27 306.627L441.137 313.76M436.27 306.627L436.078 307.464C435.459 310.155 437.138 312.839 439.829 313.459L441.137 313.76" stroke="white" stroke-width="3" stroke-linejoin="round"/>
<rect width="47.6758" height="4.08223" rx="2.04112" transform="matrix(0.976057 0.217506 -0.200295 0.979743 393.969 368.809)" fill="#000A09"/>
</g>
<rect x="0.187563" y="0.299764" width="188.529" height="116.275" rx="9.75" transform="matrix(0.97447 0.224516 -0.224218 0.974539 399.185 270.034)" stroke="#E0F7F6" stroke-width="0.5"/>
<rect x="0.296905" y="0.191863" width="239.915" height="140.928" rx="9.75" transform="matrix(0.977646 -0.210256 0.209976 0.977707 -0.0336496 247.431)" fill="white"/>
<rect x="0.296905" y="0.191863" width="239.915" height="140.928" rx="9.75" transform="matrix(0.977646 -0.210256 0.209976 0.977707 -0.0336496 247.431)" stroke="#E0F7F6" stroke-width="0.5"/>
<path d="M50.5999 334.329C51.747 334.082 52.8015 334.09 53.7633 334.353C54.7356 334.613 55.546 335.109 56.1944 335.843C56.8511 336.563 57.297 337.471 57.5321 338.566C57.7673 339.661 57.7335 340.672 57.4308 341.599C57.1362 342.514 56.5991 343.289 55.8194 343.926C55.0502 344.561 54.092 345.001 52.9449 345.248L49.1282 346.069L46.7832 335.15L50.5999 334.329ZM52.4669 343.403C53.614 343.157 54.4332 342.653 54.9245 341.893C55.4158 341.133 55.5394 340.184 55.2953 339.047C55.0512 337.911 54.5479 337.091 53.7856 336.59C53.0211 336.078 52.0652 335.945 50.9181 336.192L49.3695 336.525L50.9183 343.736L52.4669 343.403ZM67.4254 337.404C67.4926 337.717 67.5322 338.003 67.5443 338.262L61.2091 339.625C61.3957 340.239 61.7199 340.682 62.1819 340.954C62.6439 341.226 63.1565 341.301 63.7196 341.18C64.533 341.005 65.0367 340.531 65.2308 339.758L67.5928 339.25C67.5217 340.138 67.1898 340.93 66.5972 341.625C66.0023 342.309 65.1886 342.762 64.1562 342.984C63.322 343.164 62.5319 343.143 61.7862 342.921C61.0485 342.687 60.4192 342.271 59.8982 341.674C59.3877 341.075 59.0372 340.332 58.8468 339.446C58.6542 338.549 58.6676 337.722 58.887 336.966C59.1064 336.209 59.5054 335.578 60.084 335.072C60.6626 334.565 61.3794 334.22 62.2345 334.036C63.0584 333.859 63.8316 333.878 64.5543 334.094C65.2875 334.307 65.9019 334.704 66.3975 335.285C66.9014 335.853 67.244 336.559 67.4254 337.404ZM65.0229 337.266C64.8915 336.705 64.5919 336.301 64.1239 336.052C63.6537 335.793 63.1319 335.725 62.5583 335.849C62.0161 335.965 61.5931 336.231 61.2893 336.645C60.9937 337.047 60.867 337.549 60.909 338.151L65.0229 337.266ZM70.5923 333.695C70.7887 333.239 71.104 332.827 71.5382 332.461C71.9805 332.082 72.5197 331.824 73.1558 331.688C73.8962 331.528 74.6028 331.567 75.2756 331.804C75.9589 332.039 76.5453 332.459 77.035 333.063C77.533 333.654 77.8771 334.393 78.0675 335.279C78.2578 336.166 78.2497 336.991 78.0429 337.756C77.8444 338.508 77.483 339.136 76.9588 339.642C76.445 340.145 75.8179 340.476 75.0775 340.636C74.4414 340.772 73.8503 340.763 73.3042 340.608C72.7685 340.45 72.3069 340.206 71.9193 339.875L73.0717 345.24L70.8817 345.711L68.1336 332.915L70.3235 332.444L70.5923 333.695ZM75.8306 335.76C75.7186 335.239 75.5128 334.814 75.2132 334.486C74.9218 334.145 74.5775 333.913 74.1804 333.791C73.7937 333.667 73.397 333.649 72.9903 333.736C72.594 333.821 72.241 334.006 71.9312 334.291C71.6297 334.563 71.4108 334.916 71.2747 335.349C71.149 335.78 71.1421 336.256 71.2541 336.777C71.3661 337.299 71.5678 337.73 71.8593 338.071C72.1611 338.41 72.5065 338.646 72.8954 338.781C73.2926 338.903 73.6893 338.921 74.0855 338.836C74.4922 338.748 74.8452 338.563 75.1446 338.281C75.4543 337.996 75.6721 337.638 75.7978 337.207C75.9339 336.774 75.9448 336.292 75.8306 335.76ZM79.0957 335.058C78.9076 334.182 78.9128 333.368 79.1113 332.616C79.3203 331.862 79.6828 331.239 80.1988 330.746C80.7253 330.251 81.3587 329.923 82.0991 329.764C82.7456 329.625 83.3368 329.634 83.8725 329.792C84.4186 329.947 84.8802 330.192 85.2573 330.525L84.9919 329.289L87.1974 328.815L89.0587 337.481L86.8531 337.956L86.581 336.689C86.3868 337.156 86.0685 337.579 85.6262 337.958C85.192 338.324 84.6517 338.576 84.0051 338.716C83.2752 338.873 82.5674 338.828 81.882 338.583C81.2069 338.335 80.6193 337.911 80.1192 337.309C79.6273 336.695 79.2861 335.944 79.0957 335.058ZM85.9225 333.623C85.8083 333.091 85.6066 332.659 85.3174 332.329C85.0259 331.988 84.6816 331.756 84.2845 331.634C83.8852 331.502 83.4822 331.48 83.0754 331.567C82.6687 331.655 82.3146 331.834 82.013 332.107C81.7115 332.379 81.4926 332.731 81.3565 333.164C81.2286 333.585 81.2206 334.055 81.3326 334.577C81.4446 335.098 81.6474 335.535 81.9411 335.886C82.2429 336.225 82.5883 336.462 82.9772 336.596C83.3766 336.729 83.7744 336.752 84.1707 336.667C84.5774 336.579 84.9367 336.399 85.2487 336.124C85.5585 335.839 85.7774 335.487 85.9053 335.066C86.031 334.636 86.0367 334.154 85.9225 333.623ZM91.8151 329.229C91.9982 328.71 92.2859 328.272 92.6783 327.915C93.0811 327.555 93.5746 327.313 94.1585 327.187L94.6524 329.487L94.0736 329.611C93.3854 329.759 92.8987 330.033 92.6136 330.432C92.3389 330.83 92.2877 331.43 92.4602 332.233L93.3874 336.55L91.1975 337.021L89.3363 328.355L91.5262 327.884L91.8151 329.229ZM98.5965 328.246L99.4969 332.438C99.5596 332.73 99.6733 332.929 99.838 333.036C100.011 333.129 100.264 333.14 100.598 333.069L101.615 332.85L102.011 334.696L100.634 334.992C98.7887 335.389 97.6732 334.69 97.2879 332.897L96.3909 328.72L95.3585 328.942L94.9722 327.143L96.0046 326.921L95.5443 324.778L97.7499 324.303L98.2101 326.447L100.15 326.029L100.536 327.828L98.5965 328.246ZM112.46 323.251C113.524 323.022 114.449 323.167 115.237 323.685C116.033 324.19 116.556 325.027 116.807 326.195L117.899 331.279L115.709 331.75L114.681 326.963C114.535 326.285 114.252 325.806 113.832 325.525C113.41 325.234 112.901 325.153 112.307 325.281C111.712 325.408 111.277 325.693 111.001 326.134C110.733 326.563 110.672 327.116 110.817 327.794L111.845 332.581L109.655 333.052L108.627 328.265C108.482 327.587 108.199 327.108 107.779 326.827C107.356 326.536 106.848 326.455 106.253 326.583C105.648 326.713 105.208 326.998 104.932 327.44C104.664 327.868 104.602 328.421 104.748 329.099L105.776 333.886L103.586 334.357L101.725 325.691L103.915 325.22L104.14 326.268C104.343 325.842 104.641 325.478 105.034 325.175C105.438 324.87 105.906 324.661 106.438 324.546C107.115 324.4 107.752 324.416 108.346 324.594C108.939 324.761 109.438 325.079 109.844 325.548C110.018 324.987 110.339 324.498 110.805 324.081C111.283 323.662 111.834 323.386 112.46 323.251ZM127.062 324.579C127.129 324.891 127.169 325.178 127.181 325.437L120.846 326.799C121.032 327.414 121.356 327.857 121.818 328.128C122.28 328.4 122.793 328.475 123.356 328.354C124.169 328.179 124.673 327.705 124.867 326.933L127.229 326.425C127.158 327.313 126.826 328.104 126.234 328.799C125.639 329.483 124.825 329.937 123.793 330.159C122.958 330.338 122.168 330.317 121.423 330.096C120.685 329.861 120.056 329.446 119.535 328.849C119.024 328.249 118.674 327.506 118.483 326.62C118.291 325.723 118.304 324.896 118.523 324.14C118.743 323.384 119.142 322.752 119.72 322.246C120.299 321.74 121.016 321.395 121.871 321.211C122.695 321.034 123.468 321.053 124.191 321.268C124.924 321.482 125.538 321.879 126.034 322.459C126.538 323.027 126.88 323.734 127.062 324.579ZM124.659 324.441C124.528 323.88 124.228 323.475 123.76 323.227C123.29 322.968 122.768 322.9 122.195 323.023C121.652 323.14 121.229 323.405 120.926 323.82C120.63 324.222 120.503 324.723 120.545 325.325L124.659 324.441ZM132.545 318.931C133.578 318.709 134.483 318.858 135.26 319.379C136.035 319.888 136.548 320.727 136.799 321.895L137.89 326.979L135.7 327.45L134.672 322.664C134.525 321.975 134.239 321.486 133.817 321.195C133.392 320.893 132.883 320.806 132.288 320.934C131.683 321.064 131.244 321.355 130.97 321.807C130.704 322.246 130.645 322.81 130.793 323.498L131.821 328.285L129.631 328.756L127.77 320.089L129.96 319.618L130.192 320.698C130.403 320.26 130.711 319.888 131.114 319.583C131.526 319.265 132.003 319.048 132.545 318.931ZM141.048 319.116L141.948 323.308C142.011 323.6 142.125 323.799 142.289 323.906C142.462 324 142.715 324.011 143.049 323.939L144.066 323.72L144.462 325.566L143.086 325.862C141.24 326.259 140.124 325.561 139.739 323.767L138.842 319.59L137.81 319.812L137.423 318.013L138.456 317.791L137.996 315.648L140.201 315.174L140.661 317.317L142.601 316.9L142.987 318.699L141.048 319.116ZM153.643 323.739C152.809 323.918 152.019 323.897 151.273 323.676C150.525 323.444 149.885 323.031 149.354 322.436C148.833 321.839 148.477 321.097 148.287 320.21C148.096 319.324 148.121 318.5 148.361 317.739C148.612 316.976 149.037 316.339 149.637 315.829C150.234 315.307 150.95 314.957 151.784 314.778C152.618 314.598 153.414 314.623 154.173 314.853C154.929 315.072 155.573 315.479 156.104 316.074C156.646 316.667 157.012 317.406 157.203 318.293C157.393 319.179 157.358 320.005 157.097 320.77C156.846 321.534 156.417 322.177 155.809 322.7C155.21 323.211 154.488 323.557 153.643 323.739ZM153.233 321.831C153.629 321.745 153.979 321.572 154.283 321.31C154.595 321.036 154.814 320.683 154.94 320.252C155.065 319.822 155.069 319.33 154.95 318.777C154.773 317.953 154.419 317.369 153.887 317.026C153.363 316.669 152.788 316.558 152.162 316.693C151.537 316.827 151.058 317.165 150.727 317.705C150.404 318.233 150.331 318.909 150.508 319.733C150.685 320.557 151.025 321.149 151.528 321.51C152.039 321.858 152.607 321.965 153.233 321.831ZM162.238 314.559L160.721 314.885L162.196 321.752L159.974 322.23L158.499 315.363L157.514 315.575L157.128 313.776L158.113 313.564L158.019 313.126C157.791 312.062 157.925 311.215 158.422 310.584C158.92 309.953 159.782 309.522 161.009 309.291L161.405 311.137C160.871 311.241 160.52 311.409 160.352 311.642C160.183 311.875 160.152 312.236 160.257 312.726L160.334 313.086L161.852 312.76L162.238 314.559ZM174.822 311.05C174.473 310.645 174.054 310.37 173.565 310.224C173.075 310.079 172.538 310.069 171.954 310.194C171.308 310.333 170.766 310.603 170.328 311.002C169.89 311.402 169.588 311.903 169.423 312.506C169.258 313.109 169.252 313.765 169.404 314.474C169.561 315.204 169.838 315.81 170.236 316.292C170.645 316.771 171.136 317.102 171.71 317.284C172.283 317.466 172.909 317.484 173.587 317.339C174.421 317.159 175.057 316.793 175.495 316.241C175.93 315.678 176.147 314.982 176.143 314.154L172.389 314.961L172.029 313.287L177.942 312.016L178.352 313.924C178.37 314.717 178.208 315.488 177.867 316.238C177.526 316.988 177.018 317.643 176.342 318.203C175.674 318.75 174.87 319.125 173.932 319.326C172.879 319.553 171.874 319.524 170.918 319.238C169.97 318.94 169.161 318.421 168.489 317.682C167.828 316.94 167.382 316.033 167.152 314.958C166.921 313.884 166.955 312.873 167.253 311.925C167.559 310.965 168.085 310.159 168.829 309.508C169.581 308.844 170.478 308.4 171.521 308.176C172.751 307.912 173.885 307.984 174.922 308.394C175.957 308.793 176.763 309.498 177.34 310.509L174.822 311.05ZM187.951 311.484C188.018 311.796 188.058 312.083 188.07 312.342L181.735 313.704C181.921 314.319 182.245 314.762 182.707 315.033C183.169 315.305 183.682 315.38 184.245 315.259C185.058 315.084 185.562 314.61 185.756 313.838L188.118 313.33C188.047 314.218 187.715 315.009 187.123 315.704C186.528 316.388 185.714 316.842 184.682 317.064C183.847 317.243 183.057 317.222 182.312 317.001C181.574 316.766 180.945 316.351 180.424 315.754C179.913 315.154 179.563 314.411 179.372 313.525C179.18 312.628 179.193 311.801 179.412 311.045C179.632 310.289 180.031 309.657 180.609 309.151C181.188 308.645 181.905 308.3 182.76 308.116C183.584 307.939 184.357 307.958 185.08 308.173C185.813 308.387 186.427 308.784 186.923 309.364C187.427 309.932 187.769 310.639 187.951 311.484ZM185.548 311.346C185.417 310.785 185.117 310.38 184.649 310.132C184.179 309.873 183.657 309.805 183.084 309.928C182.542 310.045 182.119 310.31 181.815 310.725C181.519 311.127 181.392 311.628 181.434 312.23L185.548 311.346ZM193.434 305.836C194.467 305.614 195.372 305.763 196.149 306.284C196.924 306.793 197.437 307.632 197.688 308.8L198.779 313.884L196.59 314.355L195.561 309.569C195.414 308.88 195.128 308.391 194.706 308.1C194.281 307.798 193.772 307.711 193.177 307.839C192.572 307.969 192.133 308.26 191.859 308.712C191.593 309.151 191.534 309.715 191.682 310.403L192.71 315.19L190.52 315.661L188.659 306.994L190.849 306.523L191.081 307.603C191.292 307.165 191.6 306.793 192.003 306.488C192.415 306.17 192.892 305.953 193.434 305.836ZM207.947 307.183C208.014 307.496 208.054 307.782 208.066 308.041L201.731 309.404C201.917 310.018 202.241 310.461 202.703 310.733C203.165 311.005 203.678 311.08 204.241 310.959C205.054 310.784 205.558 310.31 205.752 309.537L208.114 309.029C208.043 309.917 207.711 310.709 207.119 311.404C206.524 312.088 205.71 312.541 204.678 312.763C203.843 312.943 203.053 312.922 202.308 312.7C201.57 312.466 200.941 312.05 200.42 311.453C199.909 310.854 199.559 310.111 199.368 309.225C199.176 308.328 199.189 307.501 199.408 306.745C199.628 305.988 200.027 305.357 200.605 304.851C201.184 304.344 201.901 303.999 202.756 303.815C203.58 303.638 204.353 303.657 205.076 303.873C205.809 304.086 206.423 304.483 206.919 305.064C207.423 305.632 207.765 306.338 207.947 307.183ZM205.544 307.045C205.413 306.484 205.113 306.08 204.645 305.831C204.175 305.572 203.653 305.504 203.08 305.628C202.537 305.744 202.114 306.01 201.811 306.424C201.515 306.826 201.388 307.328 201.43 307.93L205.544 307.045ZM211.591 303.945L212.491 308.137C212.554 308.429 212.668 308.628 212.833 308.735C213.005 308.828 213.259 308.839 213.592 308.768L214.609 308.549L215.006 310.395L213.629 310.691C211.783 311.088 210.668 310.389 210.282 308.596L209.385 304.419L208.353 304.641L207.967 302.842L208.999 302.62L208.539 300.477L210.744 300.002L211.205 302.146L213.144 301.728L213.531 303.527L211.591 303.945ZM215.608 300.118C215.222 300.201 214.873 300.151 214.561 299.967C214.257 299.771 214.066 299.49 213.988 299.125C213.909 298.76 213.969 298.431 214.168 298.137C214.375 297.831 214.672 297.636 215.057 297.553C215.443 297.47 215.788 297.527 216.092 297.723C216.404 297.907 216.6 298.181 216.678 298.546C216.756 298.911 216.692 299.247 216.485 299.553C216.286 299.847 215.994 300.035 215.608 300.118ZM216.909 300.919L218.771 309.585L216.581 310.056L214.719 301.39L216.909 300.919ZM219.441 304.908C219.248 304.011 219.262 303.189 219.484 302.443C219.703 301.687 220.097 301.057 220.665 300.553C221.231 300.038 221.931 299.691 222.766 299.512C223.84 299.281 224.784 299.361 225.6 299.754C226.423 300.133 227.059 300.782 227.507 301.7L225.145 302.208C224.939 301.859 224.663 301.613 224.315 301.47C223.976 301.314 223.588 301.283 223.15 301.377C222.524 301.511 222.078 301.847 221.812 302.385C221.543 302.912 221.498 303.592 221.677 304.427C221.854 305.251 222.175 305.853 222.638 306.233C223.099 306.603 223.643 306.721 224.269 306.586C225.155 306.395 225.649 305.875 225.75 305.024L228.112 304.516C228.073 305.506 227.759 306.354 227.169 307.059C226.578 307.764 225.751 308.231 224.687 308.46C223.853 308.639 223.074 308.616 222.349 308.39C221.621 308.154 221.004 307.741 220.495 307.152C219.985 306.553 219.633 305.805 219.441 304.908ZM233.691 306.524C232.981 306.676 232.318 306.688 231.702 306.559C231.082 306.419 230.559 306.166 230.131 305.8C229.714 305.431 229.432 304.985 229.287 304.459L231.492 303.985C231.606 304.31 231.827 304.551 232.155 304.71C232.494 304.866 232.878 304.898 233.305 304.806C233.722 304.717 234.028 304.564 234.221 304.347C234.425 304.129 234.499 303.889 234.443 303.629C234.383 303.347 234.192 303.17 233.871 303.097C233.558 303.012 233.071 302.953 232.409 302.921C231.729 302.903 231.163 302.856 230.71 302.779C230.267 302.699 229.858 302.52 229.481 302.241C229.116 301.96 228.87 301.527 228.744 300.943C228.641 300.463 228.683 299.996 228.869 299.541C229.065 299.085 229.394 298.686 229.856 298.347C230.328 298.006 230.914 297.76 231.612 297.609C232.645 297.387 233.525 297.471 234.252 297.86C234.977 298.239 235.465 298.859 235.715 299.722L233.619 300.173C233.514 299.835 233.31 299.596 233.007 299.453C232.712 299.299 232.35 299.267 231.923 299.359C231.526 299.444 231.235 299.584 231.047 299.777C230.87 299.968 230.809 300.193 230.865 300.454C230.928 300.746 231.122 300.939 231.448 301.033C231.771 301.116 232.257 301.169 232.906 301.194C233.565 301.215 234.116 301.266 234.559 301.345C235.001 301.425 235.406 301.61 235.775 301.902C236.151 302.181 236.406 302.607 236.539 303.178C236.647 303.678 236.603 304.157 236.406 304.614C236.22 305.069 235.891 305.467 235.419 305.808C234.955 306.137 234.379 306.376 233.691 306.524Z" fill="#0D1111"/>
<path d="M29.5723 284.264C27.4849 274.544 33.6715 264.97 43.3904 262.88L68.8092 257.414C78.5281 255.323 88.099 261.508 90.1864 271.228L95.6457 296.648C97.7331 306.368 91.5466 315.941 81.8277 318.031L56.4088 323.498C46.6899 325.588 37.119 319.403 35.0316 309.684L29.5723 284.264Z" fill="#001C15"/>
<path d="M46.242 283.708C45.7781 281.549 47.1529 279.421 49.3127 278.957L70.0158 274.504C72.1755 274.04 74.3024 275.414 74.7663 277.574L77.5078 290.339C77.9717 292.499 76.5969 294.627 74.4372 295.091L64.0856 297.318L53.7341 299.544C51.5743 300.008 49.4474 298.634 48.9836 296.474L46.242 283.708Z" fill="#001C15"/>
<path d="M65.5594 304.18L64.0856 297.318M65.5594 304.18L57.0021 306.02M65.5594 304.18L74.1167 302.34M64.0856 297.318L74.4372 295.091C76.5969 294.627 77.9717 292.499 77.5078 290.339L74.7663 277.574C74.3024 275.414 72.1755 274.04 70.0158 274.504L49.3127 278.957C47.1529 279.421 45.7781 281.549 46.242 283.708L48.9836 296.474C49.4474 298.634 51.5743 300.008 53.7341 299.544L64.0856 297.318Z" stroke="white" stroke-width="4" stroke-linecap="round"/>
<rect width="40.6169" height="4.60331" rx="2.30165" transform="matrix(0.979715 -0.200382 0.217017 0.976166 51.168 360.495)" fill="#00FEA8"/>
<g clip-path="url(#clip4_4_16)">
<rect width="233.801" height="86.7739" rx="10" transform="matrix(0.97625 0.216649 -0.216361 0.976313 218.742 0.0878906)" fill="#FFEECC"/>
<path d="M311.533 56.8836C311.403 56.4341 311.17 56.0621 310.834 55.7676C310.498 55.4731 310.074 55.2693 309.564 55.156C308.999 55.0307 308.47 55.047 307.976 55.2051C307.482 55.3632 307.06 55.6518 306.709 56.0711C306.358 56.4903 306.113 57.0098 305.976 57.6294C305.835 58.2673 305.835 58.8504 305.976 59.3788C306.126 59.9093 306.396 60.3516 306.786 60.7059C307.176 61.0601 307.667 61.3029 308.259 61.4343C308.988 61.5961 309.627 61.5372 310.177 61.2576C310.728 60.9689 311.153 60.4945 311.453 59.8343L308.173 59.1063L308.497 57.6438L313.663 58.7903L313.293 60.4579C313.018 61.0948 312.609 61.6492 312.064 62.1211C311.52 62.5931 310.877 62.9284 310.135 63.127C309.404 63.3186 308.629 63.3234 307.809 63.1414C306.889 62.9372 306.1 62.5471 305.444 61.9713C304.799 61.3883 304.344 60.6803 304.079 59.8471C303.824 59.016 303.8 58.1312 304.008 57.1926C304.216 56.2541 304.611 55.4622 305.194 54.8172C305.788 54.165 306.499 53.7158 307.328 53.4695C308.168 53.2162 309.044 53.1906 309.955 53.3928C311.03 53.6314 311.906 54.1029 312.581 54.8073C313.259 55.5027 313.643 56.3575 313.734 57.3719L311.533 56.8836ZM317.234 58.4356C317.569 58.0893 317.958 57.8457 318.4 57.7048C318.852 57.566 319.332 57.5532 319.843 57.6664L319.397 59.6757L318.892 59.5635C318.29 59.43 317.803 59.4702 317.431 59.6839C317.068 59.8996 316.808 60.3583 316.653 61.06L315.817 64.8325L313.903 64.4078L315.581 56.8355L317.495 57.2602L317.234 58.4356ZM327.343 63.246C327.283 63.5193 327.21 63.7613 327.125 63.9719L321.59 62.7435C321.514 63.3004 321.61 63.7711 321.879 64.1557C322.147 64.5404 322.528 64.7873 323.02 64.8965C323.73 65.0542 324.304 64.8612 324.74 64.3174L326.804 64.7754C326.423 65.4558 325.871 65.9642 325.146 66.3006C324.424 66.6278 323.611 66.6913 322.709 66.4911C321.98 66.3293 321.36 66.0243 320.847 65.576C320.346 65.1205 319.997 64.5603 319.8 63.8952C319.612 63.2321 319.604 62.5133 319.776 61.7388C319.95 60.9551 320.262 60.3025 320.712 59.781C321.162 59.2595 321.709 58.9029 322.354 58.7114C322.999 58.5199 323.695 58.507 324.442 58.6728C325.162 58.8325 325.77 59.13 326.266 59.5652C326.771 60.0024 327.115 60.5424 327.298 61.1852C327.492 61.821 327.507 62.5079 327.343 63.246ZM325.483 62.2594C325.583 61.7653 325.492 61.3341 325.21 60.9657C324.93 60.5881 324.54 60.3437 324.039 60.2325C323.565 60.1274 323.132 60.1842 322.739 60.403C322.358 60.6147 322.074 60.9676 321.888 61.4617L325.483 62.2594ZM328.218 63.5834C328.387 62.818 328.688 62.1725 329.12 61.6469C329.561 61.1234 330.077 60.7597 330.667 60.5561C331.266 60.3544 331.889 60.3254 332.536 60.469C333.101 60.5943 333.567 60.8174 333.936 61.1382C334.314 61.4611 334.592 61.8239 334.77 62.2268L335.01 61.147L336.937 61.5747L335.259 69.147L333.331 68.7193L333.577 67.6122C333.252 67.913 332.845 68.1333 332.355 68.2731C331.876 68.4059 331.354 68.4096 330.789 68.2842C330.152 68.1427 329.605 67.8493 329.149 67.4039C328.702 66.9606 328.39 66.4085 328.211 65.7474C328.044 65.0793 328.046 64.3579 328.218 63.5834ZM334.171 64.9332C334.274 64.4684 334.27 64.0518 334.161 63.6834C334.053 63.3058 333.864 62.996 333.592 62.7541C333.323 62.5031 333.011 62.3382 332.655 62.2594C332.3 62.1805 331.953 62.1943 331.614 62.3007C331.274 62.4071 330.972 62.6076 330.706 62.9023C330.451 63.1899 330.273 63.5615 330.172 64.0171C330.071 64.4727 330.073 64.8939 330.179 65.2806C330.295 65.6602 330.484 65.9745 330.744 66.2235C331.014 66.4745 331.321 66.6384 331.668 66.7152C332.023 66.7941 332.375 66.7813 332.723 66.677C333.073 66.5635 333.376 66.3629 333.631 66.0753C333.888 65.7786 334.068 65.3979 334.171 64.9332ZM340.685 64.0557L339.873 67.7188C339.817 67.9739 339.834 68.1739 339.927 68.3186C340.03 68.4563 340.227 68.5575 340.519 68.6222L341.407 68.8193L341.05 70.4322L339.847 70.1653C338.234 69.8074 337.602 68.8448 337.949 67.2775L338.758 63.628L337.856 63.4278L338.204 61.856L339.106 62.0561L339.521 60.1836L341.448 60.6112L341.033 62.4838L342.728 62.8599L342.38 64.4318L340.685 64.0557ZM349.368 63.889L348.838 66.2809L352.05 66.9937L351.714 68.5109L348.502 67.7981L347.942 70.3268L351.564 71.1305L351.218 72.6887L345.683 71.4603L347.8 61.9061L353.336 63.1345L352.99 64.6927L349.368 63.889ZM358.855 66.3242C359.757 66.5243 360.423 66.9731 360.851 67.6706C361.282 68.3589 361.384 69.2133 361.158 70.2339L360.174 74.6761L358.26 74.2515L359.187 70.0689C359.32 69.4675 359.272 68.974 359.042 68.5883C358.814 68.1936 358.44 67.9386 357.921 67.8233C357.392 67.706 356.937 67.777 356.554 68.0363C356.183 68.2885 355.931 68.7153 355.797 69.3167L354.871 73.4993L352.957 73.0746L354.635 65.5023L356.549 65.927L356.34 66.8701C356.668 66.5987 357.048 66.4153 357.48 66.32C357.923 66.2176 358.382 66.219 358.855 66.3242ZM365.541 74.0173L368.742 68.6329L370.778 69.0848L366.298 76.0353L363.975 75.5197L362.865 67.3287L364.915 67.7836L365.541 74.0173ZM373.023 68.6366C372.686 68.5617 372.427 68.3943 372.246 68.1341C372.075 67.8669 372.026 67.5738 372.096 67.2549C372.167 66.936 372.335 66.696 372.6 66.5349C372.876 66.3668 373.183 66.3201 373.52 66.3949C373.857 66.4698 374.111 66.6408 374.281 66.908C374.463 67.1681 374.518 67.4577 374.447 67.7766C374.377 68.0955 374.203 68.3391 373.927 68.5072C373.662 68.6683 373.361 68.7114 373.023 68.6366ZM373.767 69.748L372.088 77.3202L370.175 76.8956L371.853 69.3233L373.767 69.748ZM377.31 71.7676C377.645 71.4213 378.033 71.1777 378.476 71.0368C378.927 70.898 379.408 70.8852 379.918 70.9984L379.473 73.0077L378.967 72.8954C378.366 72.762 377.879 72.8021 377.507 73.0158C377.143 73.2316 376.884 73.6903 376.728 74.3919L375.892 78.1644L373.979 77.7398L375.657 70.1675L377.57 70.5921L377.31 71.7676ZM382.84 79.8352C382.111 79.6734 381.49 79.3684 380.977 78.92C380.467 78.4626 380.109 77.9003 379.903 77.2332C379.706 76.5681 379.694 75.8483 379.865 75.0737C380.037 74.2992 380.357 73.6532 380.825 73.1357C381.303 72.6203 381.873 72.2688 382.536 72.0813C383.201 71.8847 383.898 71.8672 384.627 72.029C385.356 72.1908 385.98 72.5014 386.5 72.9609C387.021 73.4112 387.385 73.97 387.591 74.6371C387.806 75.3062 387.827 76.0281 387.656 76.8026C387.484 77.5771 387.155 78.2211 386.668 78.7346C386.191 79.25 385.615 79.6051 384.941 79.7996C384.278 79.9871 383.578 79.999 382.84 79.8352ZM383.209 78.1677C383.555 78.2445 383.897 78.2343 384.234 78.137C384.582 78.0326 384.885 77.832 385.142 77.5353C385.399 77.2386 385.581 76.8488 385.688 76.3658C385.847 75.646 385.778 75.0522 385.48 74.5846C385.193 74.1098 384.777 73.8118 384.23 73.6905C383.683 73.5692 383.18 73.663 382.719 73.9719C382.27 74.2737 381.966 74.7846 381.806 75.5044C381.647 76.2243 381.701 76.8196 381.97 77.2903C382.249 77.7539 382.662 78.0463 383.209 78.1677ZM394.119 74.1498C395.021 74.3499 395.686 74.7987 396.115 75.4962C396.545 76.1845 396.647 77.0389 396.421 78.0595L395.437 82.5017L393.523 82.0771L394.45 77.8945C394.584 77.2931 394.535 76.7996 394.305 76.4139C394.077 76.0192 393.703 75.7642 393.184 75.6489C392.656 75.5316 392.2 75.6026 391.818 75.8619C391.446 76.1141 391.194 76.5409 391.061 77.1423L390.134 81.3249L388.22 80.9002L389.898 73.3279L391.812 73.7526L391.603 74.6957C391.931 74.4243 392.311 74.2409 392.743 74.1456C393.186 74.0432 393.645 74.0446 394.119 74.1498ZM408.362 77.3106C409.291 77.5169 409.975 77.9697 410.413 78.6692C410.861 79.3615 410.973 80.218 410.747 81.2386L409.762 85.6808L407.849 85.2561L408.776 81.0736C408.907 80.4813 408.856 79.9969 408.624 79.6204C408.394 79.2347 408.02 78.9842 407.5 78.869C406.981 78.7537 406.531 78.8212 406.151 79.0714C405.781 79.3145 405.531 79.7321 405.4 80.3244L404.473 84.507L402.559 84.0823L403.486 79.8998C403.618 79.3075 403.567 78.8231 403.335 78.4466C403.105 78.0609 402.73 77.8104 402.211 77.6952C401.683 77.5779 401.228 77.6444 400.848 77.8945C400.478 78.1376 400.228 78.5553 400.097 79.1476L399.17 83.3301L397.256 82.9055L398.934 75.3332L400.848 75.7578L400.645 76.6736C400.962 76.4093 401.332 76.2285 401.755 76.1312C402.187 76.0359 402.635 76.0398 403.1 76.1429C403.692 76.2743 404.192 76.5192 404.601 76.8774C405.011 77.2266 405.292 77.6619 405.444 78.1832C405.787 77.8004 406.22 77.5284 406.743 77.3673C407.276 77.2082 407.815 77.1893 408.362 77.3106ZM419.492 83.6956C419.431 83.969 419.359 84.211 419.274 84.4216L413.738 83.1932C413.663 83.75 413.759 84.2207 414.028 84.6054C414.296 84.99 414.676 85.2369 415.169 85.3461C415.879 85.5038 416.453 85.3108 416.889 84.767L418.952 85.225C418.572 85.9055 418.02 86.4138 417.295 86.7502C416.573 87.0774 415.76 87.1409 414.858 86.9407C414.129 86.779 413.509 86.4739 412.996 86.0256C412.495 85.5702 412.146 85.0099 411.949 84.3448C411.761 83.6817 411.753 82.9629 411.925 82.1884C412.099 81.4047 412.41 80.7521 412.861 80.2306C413.311 79.7091 413.858 79.3526 414.503 79.161C415.148 78.9695 415.844 78.9566 416.591 79.1224C417.311 79.2822 417.919 79.5796 418.415 80.0148C418.92 80.452 419.264 80.992 419.447 81.6349C419.641 82.2706 419.656 82.9575 419.492 83.6956ZM417.631 82.7091C417.731 82.215 417.641 81.7837 417.359 81.4153C417.079 81.0378 416.689 80.7934 416.188 80.6822C415.714 80.577 415.281 80.6338 414.888 80.8526C414.507 81.0643 414.223 81.4173 414.037 81.9114L417.631 82.7091ZM425.912 81.2052C426.814 81.4054 427.479 81.8542 427.908 82.5516C428.338 83.2399 428.44 84.0944 428.214 85.115L427.23 89.5572L425.316 89.1325L426.243 84.95C426.376 84.3486 426.328 83.8551 426.098 83.4694C425.87 83.0747 425.496 82.8196 424.977 82.7044C424.449 82.5871 423.993 82.6581 423.611 82.9174C423.239 83.1696 422.987 83.5964 422.854 84.1978L421.927 88.3803L420.013 87.9557L421.691 80.3834L423.605 80.8081L423.396 81.7512C423.724 81.4798 424.104 81.2964 424.536 81.2011C424.979 81.0987 425.438 81.1001 425.912 81.2052ZM432.607 84.455L431.795 88.1181C431.739 88.3732 431.756 88.5732 431.849 88.7179C431.952 88.8556 432.149 88.9568 432.441 89.0215L433.329 89.2186L432.972 90.8315L431.769 90.5646C430.156 90.2067 429.524 89.2441 429.871 87.6767L430.68 84.0273L429.778 83.8271L430.126 82.2552L431.028 82.4554L431.443 80.5829L433.37 81.0105L432.955 82.8831L434.65 83.2592L434.302 84.8311L432.607 84.455Z" fill="#0D1111"/>
<path d="M232.441 31.8275C234.592 22.1219 244.203 15.9999 253.908 18.1536L279.291 23.7865C288.996 25.9402 295.12 35.5541 292.969 45.2598L287.344 70.6439C285.193 80.3496 275.582 86.4716 265.877 84.3179L240.494 78.685C230.789 76.5313 224.665 66.9174 226.816 57.2117L232.441 31.8275Z" fill="#F3BA2F"/>
<path d="M256.855 64.9416C264.72 66.6871 272.456 61.9661 274.134 54.3969C275.811 46.8277 270.795 39.2766 262.929 37.5311C255.064 35.7856 247.328 40.5066 245.65 48.0758C245.129 50.4288 245.254 52.78 245.911 54.9556C246.07 55.4827 246.048 56.0528 245.804 56.5463L243.477 61.2538L247.819 60.4967C248.502 60.3777 249.19 60.6279 249.689 61.1094C251.596 62.9523 254.044 64.3177 256.855 64.9416Z" stroke="white" stroke-width="4" stroke-linejoin="round"/>
<ellipse cx="1.82353" cy="1.75472" rx="1.82353" ry="1.75472" transform="matrix(0.97625 0.216649 -0.216361 0.976313 251.367 47.5474)" fill="white"/>
<ellipse cx="1.82353" cy="1.75472" rx="1.82353" ry="1.75472" transform="matrix(0.97625 0.216649 -0.216361 0.976313 258.488 49.1276)" fill="white"/>
<ellipse cx="1.82353" cy="1.75472" rx="1.82353" ry="1.75472" transform="matrix(0.97625 0.216649 -0.216361 0.976313 265.609 50.708)" fill="white"/>
<rect width="47.6758" height="4.08223" rx="2.04112" transform="matrix(0.97606 0.217502 -0.2003 0.97974 300.023 78.0161)" fill="#000A09"/>
</g>
<rect x="0.189972" y="0.298241" width="233.301" height="86.2739" rx="9.75" transform="matrix(0.97625 0.216649 -0.216361 0.976313 218.811 0.0537976)" stroke="#E0F7F6" stroke-width="0.5"/>
<rect x="0.295551" y="0.193946" width="277.838" height="97.7792" rx="9.75" transform="matrix(0.979101 -0.203375 0.203103 0.979157 143.818 536.899)" fill="#B5FFBD"/>
<rect x="0.295551" y="0.193946" width="277.838" height="97.7792" rx="9.75" transform="matrix(0.979101 -0.203375 0.203103 0.979157 143.818 536.899)" stroke="#E0F7F6" stroke-width="0.5"/>
<path d="M242.44 560.827C242.007 560.318 241.486 559.97 240.875 559.784C240.265 559.597 239.594 559.58 238.863 559.732C238.054 559.9 237.373 560.232 236.823 560.728C236.272 561.223 235.891 561.847 235.679 562.599C235.467 563.351 235.454 564.171 235.638 565.059C235.827 565.973 236.169 566.733 236.662 567.338C237.168 567.941 237.779 568.359 238.495 568.592C239.21 568.825 239.992 568.853 240.841 568.677C241.885 568.46 242.683 568.008 243.235 567.321C243.785 566.622 244.061 565.754 244.064 564.718L239.364 565.694L238.93 563.599L246.332 562.062L246.827 564.451C246.842 565.442 246.633 566.404 246.201 567.339C245.768 568.273 245.127 569.087 244.277 569.781C243.437 570.459 242.43 570.92 241.255 571.164C239.936 571.438 238.681 571.393 237.488 571.027C236.306 570.647 235.299 569.991 234.466 569.061C233.646 568.128 233.097 566.99 232.818 565.645C232.539 564.3 232.59 563.037 232.971 561.854C233.363 560.656 234.026 559.654 234.962 558.847C235.908 558.024 237.033 557.477 238.339 557.206C239.879 556.886 241.296 556.986 242.589 557.508C243.879 558.016 244.88 558.904 245.593 560.172L242.44 560.827ZM258.847 561.484C258.928 561.876 258.975 562.234 258.988 562.558L251.057 564.205C251.285 564.975 251.686 565.532 252.261 565.875C252.837 566.219 253.477 566.317 254.182 566.171C255.2 565.96 255.834 565.372 256.083 564.407L259.04 563.793C258.943 564.903 258.521 565.889 257.775 566.752C257.025 567.603 256.004 568.162 254.711 568.43C253.667 568.647 252.68 568.614 251.75 568.331C250.83 568.032 250.047 567.507 249.401 566.756C248.768 566.002 248.336 565.07 248.106 563.96C247.873 562.838 247.897 561.805 248.178 560.861C248.459 559.918 248.963 559.132 249.691 558.504C250.418 557.876 251.318 557.451 252.388 557.229C253.419 557.015 254.386 557.045 255.287 557.321C256.202 557.594 256.966 558.096 257.581 558.826C258.205 559.541 258.628 560.427 258.847 561.484ZM255.845 561.291C255.686 560.588 255.315 560.08 254.732 559.765C254.147 559.437 253.495 559.348 252.777 559.497C252.098 559.638 251.567 559.966 251.184 560.482C250.811 560.981 250.648 561.608 250.695 562.36L255.845 561.291ZM265.751 554.474C267.043 554.205 268.173 554.4 269.14 555.057C270.104 555.701 270.738 556.754 271.041 558.216L272.361 564.581L269.62 565.15L268.377 559.158C268.198 558.296 267.846 557.681 267.32 557.314C266.792 556.933 266.156 556.82 265.412 556.975C264.654 557.132 264.103 557.492 263.756 558.054C263.42 558.601 263.342 559.305 263.52 560.166L264.763 566.159L262.022 566.728L259.771 555.879L262.513 555.31L262.793 556.661C263.061 556.115 263.449 555.653 263.956 555.275C264.474 554.882 265.072 554.615 265.751 554.474ZM283.879 556.285C283.96 556.676 284.007 557.034 284.02 557.358L276.089 559.006C276.317 559.776 276.718 560.332 277.294 560.676C277.869 561.019 278.509 561.118 279.214 560.971C280.232 560.76 280.866 560.172 281.115 559.208L284.072 558.594C283.975 559.703 283.554 560.69 282.807 561.553C282.057 562.403 281.036 562.962 279.744 563.231C278.699 563.448 277.712 563.415 276.782 563.131C275.862 562.832 275.079 562.307 274.433 561.556C273.8 560.802 273.368 559.871 273.138 558.761C272.905 557.638 272.929 556.605 273.21 555.661C273.491 554.718 273.995 553.932 274.723 553.305C275.451 552.677 276.35 552.252 277.42 552.029C278.451 551.815 279.418 551.846 280.319 552.122C281.234 552.395 281.998 552.896 282.613 553.627C283.238 554.341 283.66 555.227 283.879 556.285ZM280.877 556.091C280.718 555.389 280.347 554.88 279.764 554.566C279.179 554.238 278.527 554.149 277.809 554.298C277.13 554.439 276.599 554.767 276.216 555.282C275.843 555.782 275.68 556.408 275.727 557.161L280.877 556.091ZM288.463 552.269L289.551 557.517C289.627 557.882 289.767 558.132 289.972 558.267C290.188 558.386 290.504 558.402 290.922 558.315L292.195 558.05L292.674 560.361L290.951 560.719C288.64 561.199 287.252 560.316 286.786 558.071L285.702 552.842L284.409 553.111L283.942 550.858L285.234 550.59L284.678 547.907L287.439 547.334L287.995 550.017L290.424 549.512L290.891 551.764L288.463 552.269ZM293.518 547.521C293.035 547.622 292.599 547.556 292.21 547.323C291.832 547.075 291.595 546.722 291.501 546.265C291.406 545.808 291.484 545.397 291.735 545.032C291.996 544.651 292.368 544.41 292.851 544.31C293.335 544.209 293.765 544.283 294.143 544.532C294.532 544.764 294.774 545.109 294.869 545.566C294.963 546.023 294.88 546.442 294.619 546.823C294.368 547.188 294.001 547.421 293.518 547.521ZM295.137 548.533L297.387 559.382L294.646 559.952L292.395 549.103L295.137 548.533ZM298.266 553.541C298.033 552.419 298.058 551.392 298.342 550.462C298.623 549.518 299.12 548.734 299.835 548.109C300.547 547.471 301.425 547.043 302.469 546.826C303.814 546.547 304.994 546.656 306.01 547.153C307.035 547.634 307.824 548.451 308.377 549.603L305.42 550.217C305.166 549.78 304.822 549.47 304.389 549.287C303.967 549.089 303.482 549.047 302.933 549.161C302.15 549.323 301.589 549.739 301.252 550.409C300.911 551.065 300.849 551.915 301.066 552.96C301.28 553.991 301.675 554.747 302.251 555.226C302.824 555.693 303.503 555.845 304.286 555.682C305.396 555.451 306.017 554.805 306.151 553.742L309.108 553.128C309.051 554.365 308.651 555.422 307.907 556.298C307.162 557.175 306.125 557.751 304.793 558.028C303.749 558.245 302.774 558.209 301.87 557.92C300.963 557.618 300.195 557.097 299.564 556.356C298.932 555.602 298.499 554.664 298.266 553.541ZM316.064 555.687C315.176 555.871 314.347 555.88 313.577 555.713C312.804 555.533 312.152 555.212 311.621 554.751C311.103 554.286 310.755 553.725 310.577 553.068L313.338 552.494C313.477 552.901 313.751 553.205 314.161 553.406C314.583 553.604 315.062 553.648 315.597 553.537C316.119 553.428 316.502 553.24 316.746 552.971C317.003 552.7 317.098 552.401 317.03 552.075C316.957 551.722 316.72 551.499 316.319 551.405C315.929 551.296 315.32 551.218 314.494 551.172C313.644 551.144 312.936 551.08 312.371 550.979C311.818 550.876 311.308 550.649 310.84 550.296C310.385 549.941 310.082 549.398 309.93 548.667C309.806 548.067 309.862 547.483 310.098 546.917C310.348 546.347 310.762 545.853 311.343 545.432C311.936 545.01 312.67 544.707 313.544 544.526C314.837 544.257 315.936 544.369 316.841 544.862C317.744 545.342 318.349 546.122 318.654 547.202L316.03 547.747C315.902 547.325 315.649 547.023 315.271 546.843C314.903 546.647 314.452 546.605 313.917 546.716C313.421 546.819 313.055 546.99 312.818 547.23C312.595 547.467 312.517 547.749 312.585 548.075C312.661 548.441 312.902 548.683 313.308 548.803C313.712 548.91 314.319 548.981 315.13 549.017C315.953 549.05 316.642 549.118 317.194 549.222C317.747 549.325 318.252 549.56 318.709 549.928C319.177 550.28 319.492 550.814 319.654 551.53C319.784 552.156 319.724 552.754 319.475 553.324C319.238 553.89 318.823 554.385 318.23 554.808C317.647 555.215 316.925 555.508 316.064 555.687Z" fill="#0D1111"/>
<path d="M164.933 567.091C162.914 557.357 169.168 547.827 178.901 545.805L204.358 540.517C214.091 538.496 223.618 544.747 225.637 554.481L230.918 579.94C232.937 589.673 226.684 599.203 216.95 601.225L191.494 606.513C181.76 608.535 172.233 602.283 170.214 592.549L164.933 567.091Z" fill="#74FF83"/>
<path d="M208.763 585.601L192.79 588.919C190.628 589.368 188.51 587.979 188.062 585.816L183.984 566.159C183.536 563.996 184.925 561.878 187.088 561.429L198.422 559.074L208.617 565.201L211.867 580.871C212.316 583.034 210.926 585.152 208.763 585.601Z" fill="#74FF83"/>
<path d="M198.422 559.074L187.088 561.429C184.925 561.878 183.536 563.996 183.984 566.159L188.062 585.816C188.51 587.979 190.628 589.368 192.79 588.919L208.763 585.601C210.926 585.152 212.316 583.034 211.867 580.871L208.617 565.201M198.422 559.074L208.617 565.201M198.422 559.074L199.656 565.02C199.88 566.101 200.938 566.796 202.02 566.571L208.617 565.201" stroke="white" stroke-width="3" stroke-linejoin="round"/>
<rect width="47.6758" height="4.08223" rx="2.04112" transform="matrix(0.983802 -0.17922 0.195938 0.980618 240.715 586.143)" fill="#000A09"/>
<defs>
<clipPath id="clip0_4_16">
<path d="M109.672 226.197C109.672 114.908 199.89 24.6899 311.179 24.6899V24.6899C422.468 24.6899 512.686 114.908 512.686 226.197V556.099C512.686 567.145 503.732 576.099 492.686 576.099H129.672C118.626 576.099 109.672 567.145 109.672 556.099V226.197Z" fill="white"/>
</clipPath>
<clipPath id="clip1_4_16">
<rect width="736" height="160" fill="white" transform="matrix(0 1 -1 0 289.672 -77.3101)"/>
</clipPath>
<clipPath id="clip2_4_16">
<rect width="736" height="160" fill="white" transform="matrix(0 1 -1 0 476.672 -77.3101)"/>
</clipPath>
<clipPath id="clip3_4_16">
<rect width="189.029" height="116.775" rx="10" transform="matrix(0.97447 0.224516 -0.224218 0.974539 399.113 270.069)" fill="white"/>
</clipPath>
<clipPath id="clip4_4_16">
<rect width="233.801" height="86.7739" rx="10" transform="matrix(0.97625 0.216649 -0.216361 0.976313 218.742 0.0878906)" fill="white"/>
</clipPath>
</defs>
</svg>
